<?xml version="1.0" encoding="utf-8"?>
<!-- Generator: Adobe Illustrator 25.4.1, SVG Export Plug-In . SVG Version: 6.00 Build 0)  -->
<svg version="1.1" id="Calque_1" xmlns="http://www.w3.org/2000/svg" xmlns:xlink="http://www.w3.org/1999/xlink" x="0px" y="0px"
	 viewBox="0 0 841.89 595.28" style="enable-background:new 0 0 841.89 595.28;" xml:space="preserve">
<style type="text/css">
	.st0{fill:#7A132F;}
	.st1{clip-path:url(#SVGID_00000063608793418779115450000010446146587981033102_);fill:#2B2F47;}
	.st2{clip-path:url(#SVGID_00000063608793418779115450000010446146587981033102_);fill:#7A132F;}
</style>
<g>
	<g>
		<g>
			<path class="st0" d="M510.69,375.28h-37.73V258.93h37.73v13.96h-22.44v37.07h20.28v13.96h-20.28v37.4h22.44V375.28z"/>
			<path class="st0" d="M519.49,306.97c0-6.54,2.08-11.74,6.23-15.62c4.16-3.88,9.45-5.82,15.87-5.82s11.75,1.94,15.96,5.82
				c4.21,3.88,6.32,9.09,6.32,15.62v68.32h-15.29v-68.32c0-2.22-0.64-4.01-1.91-5.4c-1.27-1.38-2.97-2.08-5.07-2.08
				s-3.77,0.66-4.99,1.99c-1.22,1.33-1.83,3.16-1.83,5.49v68.32h-15.29V306.97z"/>
			<path class="st0" d="M574.68,306.97c0-6.54,2.1-11.74,6.32-15.62c4.21-3.88,9.53-5.82,15.96-5.82c6.43,0,11.72,1.94,15.87,5.82
				c4.16,3.88,6.23,9.09,6.23,15.62v9.64h-15.29v-9.64c0-2.22-0.61-4.01-1.83-5.4c-1.22-1.38-2.88-2.08-4.99-2.08
				c-2.11,0-3.8,0.69-5.07,2.08c-1.28,1.39-1.91,3.19-1.91,5.4v6.48c0,2.55,1.52,4.99,4.57,7.31c3.05,2.33,6.37,4.4,9.97,6.23
				c3.6,1.83,6.92,4.63,9.97,8.39c3.05,3.77,4.57,8.15,4.57,13.13v6.82c0,6.54-2.11,11.75-6.32,15.62
				c-4.21,3.88-9.53,5.82-15.96,5.82c-6.43,0-11.72-1.94-15.87-5.82c-4.16-3.88-6.23-9.08-6.23-15.62v-9.64h15.29v9.64
				c0,2.33,0.61,4.15,1.83,5.49c1.22,1.33,2.88,2,4.99,2c2.1,0,3.79-0.69,5.07-2.08c1.27-1.38,1.91-3.18,1.91-5.4v-6.82
				c0-2.22-1-4.29-2.99-6.23c-1.99-1.94-4.4-3.71-7.23-5.32c-2.82-1.61-5.68-3.38-8.56-5.32c-2.88-1.94-5.32-4.46-7.31-7.56
				c-1.99-3.1-2.99-6.65-2.99-10.64V306.97z"/>
			<path class="st0" d="M629.86,306.97c0-6.54,2.1-11.74,6.32-15.62c4.21-3.88,9.53-5.82,15.96-5.82c6.43,0,11.72,1.94,15.87,5.82
				c4.15,3.88,6.23,9.09,6.23,15.62v9.64h-15.29v-9.64c0-2.22-0.61-4.01-1.83-5.4c-1.22-1.38-2.88-2.08-4.99-2.08
				c-2.11,0-3.8,0.69-5.07,2.08c-1.27,1.39-1.91,3.19-1.91,5.4v48.54c0,2.22,0.64,4.02,1.91,5.4c1.27,1.39,2.97,2.08,5.07,2.08
				c2.1,0,3.76-0.69,4.99-2.08c1.22-1.38,1.83-3.18,1.83-5.4v-9.64h15.29v9.64c0,6.54-2.08,11.75-6.23,15.63
				c-4.15,3.88-9.45,5.82-15.87,5.82c-6.43,0-11.75-1.94-15.96-5.82c-4.21-3.88-6.32-9.09-6.32-15.63V306.97z"/>
		</g>
	</g>
	<g>
		<defs>
			<rect id="SVGID_1_" x="167.65" y="218.33" width="263.72" height="156.65"/>
		</defs>
		<clipPath id="SVGID_00000096053061270668495650000000259501940566781063_">
			<use xlink:href="#SVGID_1_"  style="overflow:visible;"/>
		</clipPath>
		<path style="clip-path:url(#SVGID_00000096053061270668495650000000259501940566781063_);fill:#2B2F47;" d="M227.14,230.65
			c1.39-1.17,2.17-2.83,2.17-4.77c0-4.24-3.23-6.97-8.23-6.97h-10.13v25.26h9.45c6.09,0,9.87-3.02,9.87-7.87
			C230.27,233.82,229.1,231.8,227.14,230.65 M217.5,234.14h2.54c3.67,0,3.67,1.09,3.67,1.96c0,0.65,0,2.16-3.83,2.16h-2.38V234.14z
			 M219.85,228.17h-2.35v-3.41h2c3.25,0,3.25,0.91,3.25,1.58C222.75,226.79,222.75,228.17,219.85,228.17"/>
		<path style="clip-path:url(#SVGID_00000096053061270668495650000000259501940566781063_);fill:#2B2F47;" d="M249.56,218.33
			c-7.91,0-13.44,5.41-13.44,13.15c0,7.69,5.65,13.28,13.44,13.28c7.84,0,13.53-5.58,13.53-13.28
			C263.1,223.74,257.53,218.33,249.56,218.33 M249.6,238.62c-3.86,0-6.56-2.94-6.56-7.14c0-4.17,2.7-7.08,6.56-7.08
			c3.88,0,6.59,2.91,6.59,7.08C256.19,235.68,253.48,238.62,249.6,238.62"/>
		<path style="clip-path:url(#SVGID_00000096053061270668495650000000259501940566781063_);fill:#2B2F47;" d="M288.8,226.69
			c0-4.8-3.7-7.78-9.64-7.78h-9.16v25.27h6.55v-9.65h0.97l5.27,9.65h7.84l-6.4-10.63C287.12,232.35,288.8,229.88,288.8,226.69
			 M276.54,224.82h2.41c2.18,0,3.28,0.62,3.28,1.84c0,0.62,0,2.06-3.64,2.06h-2.06V224.82z"/>
		<path style="clip-path:url(#SVGID_00000096053061270668495650000000259501940566781063_);fill:#2B2F47;" d="M305.01,218.91h-9.32
			v25.27h9.32c6.66,0,13.82-3.95,13.82-12.63C318.83,222.23,311.69,218.91,305.01,218.91 M302.24,224.88h2.13
			c6.83,0,7.62,3.8,7.62,6.66c0,5.45-4.14,6.59-7.62,6.59h-2.13V224.88z"/>
		<polygon style="clip-path:url(#SVGID_00000096053061270668495650000000259501940566781063_);fill:#2B2F47;" points="
			332.27,234.14 342.72,234.14 342.72,228.23 332.27,228.23 332.27,224.95 343.3,224.95 343.3,218.91 325.72,218.91 325.72,244.18 
			343.88,244.18 343.88,238.07 332.27,238.07 		"/>
		<path style="clip-path:url(#SVGID_00000096053061270668495650000000259501940566781063_);fill:#2B2F47;" d="M358.37,218.91
			l-10.99,25.27h7.29l2.06-5.21h8.18l2.12,5.21h7.37l-10.89-25.27H358.37z M362.52,232.99h-3.44l1.74-4.5L362.52,232.99z"/>
		<path style="clip-path:url(#SVGID_00000096053061270668495650000000259501940566781063_);fill:#2B2F47;" d="M392.6,234.4
			c0,1.92-0.67,4.22-3.86,4.22c-3.19,0-3.86-2.29-3.86-4.22v-15.49h-6.55v15.65c0,6,4.28,10.19,10.42,10.19
			c6.13,0,10.41-4.19,10.41-10.19v-15.65h-6.55V234.4z"/>
		<polygon style="clip-path:url(#SVGID_00000096053061270668495650000000259501940566781063_);fill:#2B2F47;" points="
			420.05,230.85 427.8,218.91 420.12,218.91 416.2,225.51 412.22,218.91 404.29,218.91 412.2,230.78 403.52,244.18 411.42,244.18 
			416.07,236.39 420.91,244.18 429.08,244.18 		"/>
		<path style="clip-path:url(#SVGID_00000096053061270668495650000000259501940566781063_);fill:#2B2F47;" d="M387.62,258.36h-29.61
			c-9.87,0-17.87,8-17.87,17.88v98.75h22.76v-95.46h25.07c15.12,0,20.27,7.82,20.27,18.32c0,10.67-5.16,18.5-20.27,18.5h-15.82
			v20.99h15.46c30.23,0,43.75-16.72,43.75-39.48C431.37,275.08,417.85,258.36,387.62,258.36"/>
		
			<rect x="167.65" y="258.07" style="clip-path:url(#SVGID_00000096053061270668495650000000259501940566781063_);fill:#2B2F47;" width="21.16" height="116.91"/>
		<path style="clip-path:url(#SVGID_00000096053061270668495650000000259501940566781063_);fill:#7A132F;" d="M167.68,244.54h21.16
			l0-25.55c-11.69,0-21.16,9.47-21.16,21.16V244.54z"/>
		<path style="clip-path:url(#SVGID_00000096053061270668495650000000259501940566781063_);fill:#2B2F47;" d="M288.2,300.88
			l-56.29-40.65l0,0.02c-2.22-1.37-4.84-2.18-7.64-2.18c-8.06,0-14.59,6.53-14.59,14.59v102.33h21.28v-88.14l57.24,41.4V300.88z"/>
		<path style="clip-path:url(#SVGID_00000096053061270668495650000000259501940566781063_);fill:#7A132F;" d="M239.52,332.17
			l56.29,40.65l0-0.02c2.23,1.37,4.84,2.18,7.64,2.18c8.06,0,14.59-6.53,14.59-14.59V258.07h-21.28v88.14l-57.24-41.4V332.17z"/>
	</g>
</g>
</svg>
